<mxfile host="app.diagrams.net" agent="Mozilla/5.0 (Windows NT 10.0; Win64; x64) AppleWebKit/537.36 (KHTML, like Gecko) Chrome/133.0.0.0 Safari/537.36 Edg/133.0.0.0" version="26.0.13">
  <diagram name="Page-1" id="PI_NMm4_ZzqiEdPswElG">
    <mxGraphModel dx="2037" dy="2007" grid="1" gridSize="18" guides="1" tooltips="1" connect="1" arrows="1" fold="1" page="1" pageScale="1" pageWidth="583" pageHeight="413" math="0" shadow="0">
      <root>
        <mxCell id="0" />
        <mxCell id="1" parent="0" />
        <mxCell id="ihPKj_Jb4i0oSnzgKSyb-199" style="edgeStyle=orthogonalEdgeStyle;rounded=0;orthogonalLoop=1;jettySize=auto;html=1;exitX=0;exitY=0.25;exitDx=0;exitDy=0;entryX=0;entryY=0.5;entryDx=0;entryDy=0;strokeColor=#23445D;" edge="1" parent="1" source="ihPKj_Jb4i0oSnzgKSyb-2" target="ihPKj_Jb4i0oSnzgKSyb-164">
          <mxGeometry relative="1" as="geometry" />
        </mxCell>
        <mxCell id="ihPKj_Jb4i0oSnzgKSyb-200" style="edgeStyle=orthogonalEdgeStyle;rounded=0;orthogonalLoop=1;jettySize=auto;html=1;exitX=0.5;exitY=0;exitDx=0;exitDy=0;entryX=1;entryY=0;entryDx=0;entryDy=0;strokeColor=#23445D;" edge="1" parent="1" source="ihPKj_Jb4i0oSnzgKSyb-2" target="ihPKj_Jb4i0oSnzgKSyb-161">
          <mxGeometry relative="1" as="geometry" />
        </mxCell>
        <mxCell id="ihPKj_Jb4i0oSnzgKSyb-201" style="edgeStyle=orthogonalEdgeStyle;rounded=0;orthogonalLoop=1;jettySize=auto;html=1;exitX=0.25;exitY=1;exitDx=0;exitDy=0;entryX=0;entryY=0;entryDx=0;entryDy=0;strokeColor=#23445D;" edge="1" parent="1" source="ihPKj_Jb4i0oSnzgKSyb-2" target="ihPKj_Jb4i0oSnzgKSyb-163">
          <mxGeometry relative="1" as="geometry" />
        </mxCell>
        <mxCell id="ihPKj_Jb4i0oSnzgKSyb-202" style="edgeStyle=orthogonalEdgeStyle;rounded=0;orthogonalLoop=1;jettySize=auto;html=1;exitX=1;exitY=0.5;exitDx=0;exitDy=0;entryX=1;entryY=0.5;entryDx=0;entryDy=0;strokeColor=#23445D;" edge="1" parent="1" source="ihPKj_Jb4i0oSnzgKSyb-2" target="ihPKj_Jb4i0oSnzgKSyb-162">
          <mxGeometry relative="1" as="geometry" />
        </mxCell>
        <mxCell id="ihPKj_Jb4i0oSnzgKSyb-2" value="&lt;font style=&quot;font-size: 15px;&quot;&gt;Feedback&lt;/font&gt;" style="rounded=0;whiteSpace=wrap;html=1;labelBackgroundColor=none;fillColor=#182E3E;strokeColor=#FFFFFF;fontColor=#FFFFFF;" vertex="1" parent="1">
          <mxGeometry x="320" y="50" width="120" height="60" as="geometry" />
        </mxCell>
        <mxCell id="ihPKj_Jb4i0oSnzgKSyb-196" style="edgeStyle=orthogonalEdgeStyle;rounded=0;orthogonalLoop=1;jettySize=auto;html=1;exitX=1;exitY=0.5;exitDx=0;exitDy=0;entryX=1;entryY=0.5;entryDx=0;entryDy=0;strokeColor=#23445D;" edge="1" parent="1" source="ihPKj_Jb4i0oSnzgKSyb-3" target="ihPKj_Jb4i0oSnzgKSyb-166">
          <mxGeometry relative="1" as="geometry" />
        </mxCell>
        <mxCell id="ihPKj_Jb4i0oSnzgKSyb-197" style="edgeStyle=orthogonalEdgeStyle;rounded=0;orthogonalLoop=1;jettySize=auto;html=1;exitX=0;exitY=0.5;exitDx=0;exitDy=0;entryX=0;entryY=0.5;entryDx=0;entryDy=0;strokeColor=#23445D;" edge="1" parent="1" source="ihPKj_Jb4i0oSnzgKSyb-3" target="ihPKj_Jb4i0oSnzgKSyb-165">
          <mxGeometry relative="1" as="geometry" />
        </mxCell>
        <mxCell id="ihPKj_Jb4i0oSnzgKSyb-3" value="&lt;font style=&quot;font-size: 17px;&quot;&gt;Role&lt;/font&gt;" style="rounded=0;whiteSpace=wrap;html=1;labelBackgroundColor=none;fillColor=#182E3E;strokeColor=#FFFFFF;fontColor=#FFFFFF;" vertex="1" parent="1">
          <mxGeometry x="920" y="100" width="120" height="60" as="geometry" />
        </mxCell>
        <mxCell id="ihPKj_Jb4i0oSnzgKSyb-70" style="edgeStyle=orthogonalEdgeStyle;rounded=0;orthogonalLoop=1;jettySize=auto;html=1;exitX=0.5;exitY=1;exitDx=0;exitDy=0;entryX=0.5;entryY=0;entryDx=0;entryDy=0;strokeColor=#23445D;" edge="1" parent="1" source="ihPKj_Jb4i0oSnzgKSyb-22" target="ihPKj_Jb4i0oSnzgKSyb-69">
          <mxGeometry relative="1" as="geometry" />
        </mxCell>
        <mxCell id="ihPKj_Jb4i0oSnzgKSyb-75" style="edgeStyle=orthogonalEdgeStyle;rounded=0;orthogonalLoop=1;jettySize=auto;html=1;exitX=0.75;exitY=1;exitDx=0;exitDy=0;strokeColor=#23445D;" edge="1" parent="1" source="ihPKj_Jb4i0oSnzgKSyb-22" target="ihPKj_Jb4i0oSnzgKSyb-74">
          <mxGeometry relative="1" as="geometry" />
        </mxCell>
        <mxCell id="ihPKj_Jb4i0oSnzgKSyb-85" style="edgeStyle=orthogonalEdgeStyle;rounded=0;orthogonalLoop=1;jettySize=auto;html=1;exitX=0.25;exitY=1;exitDx=0;exitDy=0;strokeColor=#23445D;" edge="1" parent="1" source="ihPKj_Jb4i0oSnzgKSyb-22">
          <mxGeometry relative="1" as="geometry">
            <mxPoint x="280.0000000000009" y="710.0000000000009" as="targetPoint" />
          </mxGeometry>
        </mxCell>
        <mxCell id="ihPKj_Jb4i0oSnzgKSyb-100" style="edgeStyle=orthogonalEdgeStyle;rounded=0;orthogonalLoop=1;jettySize=auto;html=1;exitX=0;exitY=0;exitDx=0;exitDy=0;entryX=0.5;entryY=0;entryDx=0;entryDy=0;strokeColor=#23445D;" edge="1" parent="1" source="ihPKj_Jb4i0oSnzgKSyb-22" target="ihPKj_Jb4i0oSnzgKSyb-98">
          <mxGeometry relative="1" as="geometry" />
        </mxCell>
        <mxCell id="ihPKj_Jb4i0oSnzgKSyb-237" style="edgeStyle=orthogonalEdgeStyle;rounded=0;orthogonalLoop=1;jettySize=auto;html=1;exitX=0;exitY=0.25;exitDx=0;exitDy=0;entryX=1;entryY=0.5;entryDx=0;entryDy=0;strokeColor=#23445D;" edge="1" parent="1" source="ihPKj_Jb4i0oSnzgKSyb-22" target="ihPKj_Jb4i0oSnzgKSyb-157">
          <mxGeometry relative="1" as="geometry" />
        </mxCell>
        <mxCell id="ihPKj_Jb4i0oSnzgKSyb-238" style="edgeStyle=orthogonalEdgeStyle;rounded=0;orthogonalLoop=1;jettySize=auto;html=1;exitX=0;exitY=0.75;exitDx=0;exitDy=0;entryX=1;entryY=0.5;entryDx=0;entryDy=0;strokeColor=#23445D;" edge="1" parent="1" source="ihPKj_Jb4i0oSnzgKSyb-22" target="ihPKj_Jb4i0oSnzgKSyb-158">
          <mxGeometry relative="1" as="geometry" />
        </mxCell>
        <mxCell id="ihPKj_Jb4i0oSnzgKSyb-240" style="edgeStyle=orthogonalEdgeStyle;rounded=0;orthogonalLoop=1;jettySize=auto;html=1;exitX=0.5;exitY=1;exitDx=0;exitDy=0;entryX=0.5;entryY=1;entryDx=0;entryDy=0;strokeColor=#23445D;" edge="1" parent="1" source="ihPKj_Jb4i0oSnzgKSyb-22" target="ihPKj_Jb4i0oSnzgKSyb-160">
          <mxGeometry relative="1" as="geometry" />
        </mxCell>
        <mxCell id="ihPKj_Jb4i0oSnzgKSyb-281" style="edgeStyle=orthogonalEdgeStyle;rounded=0;orthogonalLoop=1;jettySize=auto;html=1;exitX=1;exitY=0.5;exitDx=0;exitDy=0;strokeColor=#23445D;" edge="1" parent="1" source="ihPKj_Jb4i0oSnzgKSyb-22" target="ihPKj_Jb4i0oSnzgKSyb-280">
          <mxGeometry relative="1" as="geometry" />
        </mxCell>
        <mxCell id="ihPKj_Jb4i0oSnzgKSyb-22" value="&lt;font style=&quot;font-size: 19px;&quot;&gt;Staff&lt;/font&gt;" style="rounded=0;whiteSpace=wrap;html=1;labelBackgroundColor=none;fillColor=#182E3E;strokeColor=#FFFFFF;fontColor=#FFFFFF;" vertex="1" parent="1">
          <mxGeometry x="300" y="220" width="120" height="60" as="geometry" />
        </mxCell>
        <mxCell id="ihPKj_Jb4i0oSnzgKSyb-57" style="edgeStyle=orthogonalEdgeStyle;rounded=0;orthogonalLoop=1;jettySize=auto;html=1;exitX=0.5;exitY=1;exitDx=0;exitDy=0;labelBackgroundColor=none;strokeColor=#23445D;fontColor=default;" edge="1" parent="1" source="ihPKj_Jb4i0oSnzgKSyb-23">
          <mxGeometry relative="1" as="geometry">
            <mxPoint x="1400" y="510" as="targetPoint" />
          </mxGeometry>
        </mxCell>
        <mxCell id="ihPKj_Jb4i0oSnzgKSyb-190" style="edgeStyle=orthogonalEdgeStyle;rounded=0;orthogonalLoop=1;jettySize=auto;html=1;exitX=0.25;exitY=0;exitDx=0;exitDy=0;entryX=0;entryY=0.5;entryDx=0;entryDy=0;strokeColor=#23445D;" edge="1" parent="1" source="ihPKj_Jb4i0oSnzgKSyb-23" target="ihPKj_Jb4i0oSnzgKSyb-172">
          <mxGeometry relative="1" as="geometry" />
        </mxCell>
        <mxCell id="ihPKj_Jb4i0oSnzgKSyb-191" style="edgeStyle=orthogonalEdgeStyle;rounded=0;orthogonalLoop=1;jettySize=auto;html=1;exitX=0.25;exitY=0;exitDx=0;exitDy=0;entryX=0;entryY=0.5;entryDx=0;entryDy=0;strokeColor=#23445D;" edge="1" parent="1" source="ihPKj_Jb4i0oSnzgKSyb-23" target="ihPKj_Jb4i0oSnzgKSyb-171">
          <mxGeometry relative="1" as="geometry" />
        </mxCell>
        <mxCell id="ihPKj_Jb4i0oSnzgKSyb-192" style="edgeStyle=orthogonalEdgeStyle;rounded=0;orthogonalLoop=1;jettySize=auto;html=1;exitX=0.75;exitY=0;exitDx=0;exitDy=0;strokeColor=#23445D;" edge="1" parent="1" source="ihPKj_Jb4i0oSnzgKSyb-23">
          <mxGeometry relative="1" as="geometry">
            <mxPoint x="1360.1428571428573" y="-126.00000000000023" as="targetPoint" />
          </mxGeometry>
        </mxCell>
        <mxCell id="ihPKj_Jb4i0oSnzgKSyb-193" style="edgeStyle=orthogonalEdgeStyle;rounded=0;orthogonalLoop=1;jettySize=auto;html=1;exitX=1;exitY=0;exitDx=0;exitDy=0;entryX=1;entryY=0;entryDx=0;entryDy=0;strokeColor=#23445D;" edge="1" parent="1" source="ihPKj_Jb4i0oSnzgKSyb-23" target="ihPKj_Jb4i0oSnzgKSyb-169">
          <mxGeometry relative="1" as="geometry" />
        </mxCell>
        <mxCell id="ihPKj_Jb4i0oSnzgKSyb-23" value="&lt;strong data-end=&quot;892&quot; data-start=&quot;884&quot;&gt;&lt;font style=&quot;font-size: 16px;&quot;&gt;Menu&lt;/font&gt;&lt;/strong&gt;" style="rounded=0;whiteSpace=wrap;html=1;labelBackgroundColor=none;fillColor=#182E3E;strokeColor=#FFFFFF;fontColor=#FFFFFF;" vertex="1" parent="1">
          <mxGeometry x="1270" y="40" width="120" height="60" as="geometry" />
        </mxCell>
        <mxCell id="ihPKj_Jb4i0oSnzgKSyb-39" style="edgeStyle=orthogonalEdgeStyle;rounded=0;orthogonalLoop=1;jettySize=auto;html=1;exitX=1;exitY=0.5;exitDx=0;exitDy=0;labelBackgroundColor=none;strokeColor=#23445D;fontColor=default;" edge="1" parent="1" source="ihPKj_Jb4i0oSnzgKSyb-24" target="ihPKj_Jb4i0oSnzgKSyb-38">
          <mxGeometry relative="1" as="geometry" />
        </mxCell>
        <mxCell id="ihPKj_Jb4i0oSnzgKSyb-46" style="edgeStyle=orthogonalEdgeStyle;rounded=0;orthogonalLoop=1;jettySize=auto;html=1;exitX=0;exitY=0;exitDx=0;exitDy=0;labelBackgroundColor=none;strokeColor=#23445D;fontColor=default;" edge="1" parent="1" source="ihPKj_Jb4i0oSnzgKSyb-24" target="ihPKj_Jb4i0oSnzgKSyb-45">
          <mxGeometry relative="1" as="geometry" />
        </mxCell>
        <mxCell id="ihPKj_Jb4i0oSnzgKSyb-52" style="edgeStyle=orthogonalEdgeStyle;rounded=0;orthogonalLoop=1;jettySize=auto;html=1;exitX=0.5;exitY=0;exitDx=0;exitDy=0;entryX=0.5;entryY=1;entryDx=0;entryDy=0;labelBackgroundColor=none;strokeColor=#23445D;fontColor=default;" edge="1" parent="1" source="ihPKj_Jb4i0oSnzgKSyb-24" target="ihPKj_Jb4i0oSnzgKSyb-50">
          <mxGeometry relative="1" as="geometry" />
        </mxCell>
        <mxCell id="ihPKj_Jb4i0oSnzgKSyb-55" style="edgeStyle=orthogonalEdgeStyle;rounded=0;orthogonalLoop=1;jettySize=auto;html=1;exitX=0.75;exitY=0;exitDx=0;exitDy=0;entryX=0.5;entryY=1;entryDx=0;entryDy=0;labelBackgroundColor=none;strokeColor=#23445D;fontColor=default;" edge="1" parent="1" source="ihPKj_Jb4i0oSnzgKSyb-24" target="ihPKj_Jb4i0oSnzgKSyb-54">
          <mxGeometry relative="1" as="geometry" />
        </mxCell>
        <mxCell id="ihPKj_Jb4i0oSnzgKSyb-65" style="edgeStyle=orthogonalEdgeStyle;rounded=0;orthogonalLoop=1;jettySize=auto;html=1;exitX=0.5;exitY=1;exitDx=0;exitDy=0;entryX=0;entryY=0.5;entryDx=0;entryDy=0;labelBackgroundColor=none;strokeColor=#23445D;fontColor=default;" edge="1" parent="1" source="ihPKj_Jb4i0oSnzgKSyb-24" target="ihPKj_Jb4i0oSnzgKSyb-63">
          <mxGeometry relative="1" as="geometry" />
        </mxCell>
        <mxCell id="ihPKj_Jb4i0oSnzgKSyb-67" style="edgeStyle=orthogonalEdgeStyle;rounded=0;orthogonalLoop=1;jettySize=auto;html=1;exitX=0.75;exitY=1;exitDx=0;exitDy=0;entryX=0;entryY=0.5;entryDx=0;entryDy=0;labelBackgroundColor=none;strokeColor=#23445D;fontColor=default;" edge="1" parent="1" source="ihPKj_Jb4i0oSnzgKSyb-24" target="ihPKj_Jb4i0oSnzgKSyb-64">
          <mxGeometry relative="1" as="geometry" />
        </mxCell>
        <mxCell id="ihPKj_Jb4i0oSnzgKSyb-88" style="edgeStyle=orthogonalEdgeStyle;rounded=0;orthogonalLoop=1;jettySize=auto;html=1;exitX=0.25;exitY=1;exitDx=0;exitDy=0;entryX=0;entryY=0.5;entryDx=0;entryDy=0;strokeColor=#23445D;" edge="1" parent="1" source="ihPKj_Jb4i0oSnzgKSyb-24" target="ihPKj_Jb4i0oSnzgKSyb-87">
          <mxGeometry relative="1" as="geometry" />
        </mxCell>
        <mxCell id="ihPKj_Jb4i0oSnzgKSyb-105" style="edgeStyle=orthogonalEdgeStyle;rounded=0;orthogonalLoop=1;jettySize=auto;html=1;exitX=0;exitY=1;exitDx=0;exitDy=0;entryX=1;entryY=0.5;entryDx=0;entryDy=0;strokeColor=#23445D;" edge="1" parent="1" source="ihPKj_Jb4i0oSnzgKSyb-24" target="ihPKj_Jb4i0oSnzgKSyb-104">
          <mxGeometry relative="1" as="geometry" />
        </mxCell>
        <mxCell id="ihPKj_Jb4i0oSnzgKSyb-116" style="edgeStyle=orthogonalEdgeStyle;rounded=0;orthogonalLoop=1;jettySize=auto;html=1;exitX=0.75;exitY=1;exitDx=0;exitDy=0;entryX=0;entryY=0.5;entryDx=0;entryDy=0;strokeColor=#23445D;" edge="1" parent="1" source="ihPKj_Jb4i0oSnzgKSyb-24" target="ihPKj_Jb4i0oSnzgKSyb-113">
          <mxGeometry relative="1" as="geometry" />
        </mxCell>
        <mxCell id="ihPKj_Jb4i0oSnzgKSyb-117" style="edgeStyle=orthogonalEdgeStyle;rounded=0;orthogonalLoop=1;jettySize=auto;html=1;exitX=0.75;exitY=1;exitDx=0;exitDy=0;entryX=0;entryY=0.5;entryDx=0;entryDy=0;strokeColor=#23445D;" edge="1" parent="1" source="ihPKj_Jb4i0oSnzgKSyb-24" target="ihPKj_Jb4i0oSnzgKSyb-114">
          <mxGeometry relative="1" as="geometry" />
        </mxCell>
        <mxCell id="ihPKj_Jb4i0oSnzgKSyb-184" style="edgeStyle=orthogonalEdgeStyle;rounded=0;orthogonalLoop=1;jettySize=auto;html=1;exitX=0.75;exitY=1;exitDx=0;exitDy=0;entryX=0;entryY=0.5;entryDx=0;entryDy=0;strokeColor=#23445D;" edge="1" parent="1" source="ihPKj_Jb4i0oSnzgKSyb-24" target="ihPKj_Jb4i0oSnzgKSyb-181">
          <mxGeometry relative="1" as="geometry" />
        </mxCell>
        <mxCell id="ihPKj_Jb4i0oSnzgKSyb-185" style="edgeStyle=orthogonalEdgeStyle;rounded=0;orthogonalLoop=1;jettySize=auto;html=1;exitX=0.75;exitY=1;exitDx=0;exitDy=0;entryX=0;entryY=1;entryDx=0;entryDy=0;strokeColor=#23445D;" edge="1" parent="1" source="ihPKj_Jb4i0oSnzgKSyb-24" target="ihPKj_Jb4i0oSnzgKSyb-180">
          <mxGeometry relative="1" as="geometry">
            <Array as="points">
              <mxPoint x="963" y="558" />
              <mxPoint x="1077" y="558" />
            </Array>
          </mxGeometry>
        </mxCell>
        <mxCell id="ihPKj_Jb4i0oSnzgKSyb-246" style="edgeStyle=orthogonalEdgeStyle;rounded=0;orthogonalLoop=1;jettySize=auto;html=1;exitX=0.75;exitY=1;exitDx=0;exitDy=0;entryX=0;entryY=0.5;entryDx=0;entryDy=0;strokeColor=#23445D;" edge="1" parent="1" source="ihPKj_Jb4i0oSnzgKSyb-24" target="ihPKj_Jb4i0oSnzgKSyb-182">
          <mxGeometry relative="1" as="geometry" />
        </mxCell>
        <mxCell id="ihPKj_Jb4i0oSnzgKSyb-24" value="&lt;font style=&quot;font-size: 29px;&quot;&gt;User&lt;/font&gt;" style="rounded=0;whiteSpace=wrap;html=1;labelBackgroundColor=none;fillColor=#182E3E;strokeColor=#FFFFFF;fontColor=#FFFFFF;" vertex="1" parent="1">
          <mxGeometry x="830" y="345" width="178" height="87" as="geometry" />
        </mxCell>
        <mxCell id="ihPKj_Jb4i0oSnzgKSyb-225" style="edgeStyle=orthogonalEdgeStyle;rounded=0;orthogonalLoop=1;jettySize=auto;html=1;exitX=0;exitY=0;exitDx=0;exitDy=0;entryX=1;entryY=0.5;entryDx=0;entryDy=0;strokeColor=#23445D;" edge="1" parent="1" source="ihPKj_Jb4i0oSnzgKSyb-25" target="ihPKj_Jb4i0oSnzgKSyb-156">
          <mxGeometry relative="1" as="geometry" />
        </mxCell>
        <mxCell id="ihPKj_Jb4i0oSnzgKSyb-226" style="edgeStyle=orthogonalEdgeStyle;rounded=0;orthogonalLoop=1;jettySize=auto;html=1;exitX=0;exitY=0.5;exitDx=0;exitDy=0;entryX=1;entryY=0.5;entryDx=0;entryDy=0;strokeColor=#23445D;" edge="1" parent="1" source="ihPKj_Jb4i0oSnzgKSyb-25" target="ihPKj_Jb4i0oSnzgKSyb-155">
          <mxGeometry relative="1" as="geometry" />
        </mxCell>
        <mxCell id="ihPKj_Jb4i0oSnzgKSyb-227" style="edgeStyle=orthogonalEdgeStyle;rounded=0;orthogonalLoop=1;jettySize=auto;html=1;exitX=0;exitY=1;exitDx=0;exitDy=0;entryX=1;entryY=1;entryDx=0;entryDy=0;strokeColor=#23445D;" edge="1" parent="1" source="ihPKj_Jb4i0oSnzgKSyb-25" target="ihPKj_Jb4i0oSnzgKSyb-154">
          <mxGeometry relative="1" as="geometry" />
        </mxCell>
        <mxCell id="ihPKj_Jb4i0oSnzgKSyb-228" style="edgeStyle=orthogonalEdgeStyle;rounded=0;orthogonalLoop=1;jettySize=auto;html=1;exitX=0.25;exitY=1;exitDx=0;exitDy=0;entryX=0.5;entryY=1;entryDx=0;entryDy=0;strokeColor=#23445D;" edge="1" parent="1" source="ihPKj_Jb4i0oSnzgKSyb-25" target="ihPKj_Jb4i0oSnzgKSyb-153">
          <mxGeometry relative="1" as="geometry" />
        </mxCell>
        <mxCell id="ihPKj_Jb4i0oSnzgKSyb-25" value="&lt;font style=&quot;font-size: 17px;&quot;&gt;Reservation&lt;/font&gt;" style="rounded=0;whiteSpace=wrap;html=1;labelBackgroundColor=none;fillColor=#182E3E;strokeColor=#FFFFFF;fontColor=#FFFFFF;" vertex="1" parent="1">
          <mxGeometry x="290" y="550" width="120" height="60" as="geometry" />
        </mxCell>
        <mxCell id="ihPKj_Jb4i0oSnzgKSyb-26" value="&lt;font style=&quot;font-size: 16px;&quot;&gt;Status&lt;/font&gt;" style="rounded=0;whiteSpace=wrap;html=1;labelBackgroundColor=none;fillColor=#182E3E;strokeColor=#FFFFFF;fontColor=#FFFFFF;" vertex="1" parent="1">
          <mxGeometry x="700" y="700" width="120" height="60" as="geometry" />
        </mxCell>
        <mxCell id="ihPKj_Jb4i0oSnzgKSyb-229" style="edgeStyle=orthogonalEdgeStyle;rounded=0;orthogonalLoop=1;jettySize=auto;html=1;exitX=0.25;exitY=1;exitDx=0;exitDy=0;entryX=0;entryY=0.5;entryDx=0;entryDy=0;strokeColor=#23445D;" edge="1" parent="1" source="ihPKj_Jb4i0oSnzgKSyb-27" target="ihPKj_Jb4i0oSnzgKSyb-186">
          <mxGeometry relative="1" as="geometry" />
        </mxCell>
        <mxCell id="ihPKj_Jb4i0oSnzgKSyb-230" style="edgeStyle=orthogonalEdgeStyle;rounded=0;orthogonalLoop=1;jettySize=auto;html=1;exitX=0.25;exitY=1;exitDx=0;exitDy=0;entryX=1;entryY=0.5;entryDx=0;entryDy=0;strokeColor=#23445D;" edge="1" parent="1" source="ihPKj_Jb4i0oSnzgKSyb-27" target="ihPKj_Jb4i0oSnzgKSyb-187">
          <mxGeometry relative="1" as="geometry" />
        </mxCell>
        <mxCell id="ihPKj_Jb4i0oSnzgKSyb-231" style="edgeStyle=orthogonalEdgeStyle;rounded=0;orthogonalLoop=1;jettySize=auto;html=1;exitX=0.75;exitY=1;exitDx=0;exitDy=0;entryX=1;entryY=0.5;entryDx=0;entryDy=0;strokeColor=#23445D;" edge="1" parent="1" source="ihPKj_Jb4i0oSnzgKSyb-27" target="ihPKj_Jb4i0oSnzgKSyb-188">
          <mxGeometry relative="1" as="geometry" />
        </mxCell>
        <mxCell id="ihPKj_Jb4i0oSnzgKSyb-232" style="edgeStyle=orthogonalEdgeStyle;rounded=0;orthogonalLoop=1;jettySize=auto;html=1;exitX=1;exitY=1;exitDx=0;exitDy=0;entryX=1;entryY=0.5;entryDx=0;entryDy=0;strokeColor=#23445D;" edge="1" parent="1" source="ihPKj_Jb4i0oSnzgKSyb-27" target="ihPKj_Jb4i0oSnzgKSyb-189">
          <mxGeometry relative="1" as="geometry" />
        </mxCell>
        <mxCell id="ihPKj_Jb4i0oSnzgKSyb-27" value="&lt;strong data-end=&quot;3366&quot; data-start=&quot;3353&quot;&gt;&lt;font style=&quot;font-size: 17px;&quot;&gt;Inventory&lt;/font&gt;&lt;/strong&gt;" style="rounded=0;whiteSpace=wrap;html=1;labelBackgroundColor=none;fillColor=#182E3E;strokeColor=#FFFFFF;fontColor=#FFFFFF;" vertex="1" parent="1">
          <mxGeometry x="270" y="860" width="120" height="60" as="geometry" />
        </mxCell>
        <mxCell id="ihPKj_Jb4i0oSnzgKSyb-82" style="edgeStyle=orthogonalEdgeStyle;rounded=0;orthogonalLoop=1;jettySize=auto;html=1;exitX=0;exitY=0.5;exitDx=0;exitDy=0;entryX=1;entryY=0.5;entryDx=0;entryDy=0;strokeColor=#23445D;" edge="1" parent="1" source="ihPKj_Jb4i0oSnzgKSyb-28" target="ihPKj_Jb4i0oSnzgKSyb-79">
          <mxGeometry relative="1" as="geometry" />
        </mxCell>
        <mxCell id="ihPKj_Jb4i0oSnzgKSyb-233" style="edgeStyle=orthogonalEdgeStyle;rounded=0;orthogonalLoop=1;jettySize=auto;html=1;exitX=0.75;exitY=1;exitDx=0;exitDy=0;entryX=1;entryY=0;entryDx=0;entryDy=0;strokeColor=#23445D;" edge="1" parent="1" source="ihPKj_Jb4i0oSnzgKSyb-28" target="ihPKj_Jb4i0oSnzgKSyb-152">
          <mxGeometry relative="1" as="geometry" />
        </mxCell>
        <mxCell id="ihPKj_Jb4i0oSnzgKSyb-234" style="edgeStyle=orthogonalEdgeStyle;rounded=0;orthogonalLoop=1;jettySize=auto;html=1;exitX=0.25;exitY=1;exitDx=0;exitDy=0;entryX=0;entryY=0.5;entryDx=0;entryDy=0;strokeColor=#23445D;" edge="1" parent="1" source="ihPKj_Jb4i0oSnzgKSyb-28" target="ihPKj_Jb4i0oSnzgKSyb-151">
          <mxGeometry relative="1" as="geometry" />
        </mxCell>
        <mxCell id="ihPKj_Jb4i0oSnzgKSyb-235" style="edgeStyle=orthogonalEdgeStyle;rounded=0;orthogonalLoop=1;jettySize=auto;html=1;exitX=0;exitY=1;exitDx=0;exitDy=0;entryX=0;entryY=0.5;entryDx=0;entryDy=0;strokeColor=#23445D;" edge="1" parent="1" source="ihPKj_Jb4i0oSnzgKSyb-28" target="ihPKj_Jb4i0oSnzgKSyb-150">
          <mxGeometry relative="1" as="geometry" />
        </mxCell>
        <mxCell id="ihPKj_Jb4i0oSnzgKSyb-236" style="edgeStyle=orthogonalEdgeStyle;rounded=0;orthogonalLoop=1;jettySize=auto;html=1;exitX=1;exitY=1;exitDx=0;exitDy=0;entryX=1;entryY=0.5;entryDx=0;entryDy=0;strokeColor=#23445D;" edge="1" parent="1" source="ihPKj_Jb4i0oSnzgKSyb-28" target="ihPKj_Jb4i0oSnzgKSyb-149">
          <mxGeometry relative="1" as="geometry" />
        </mxCell>
        <mxCell id="ihPKj_Jb4i0oSnzgKSyb-28" value="&lt;strong data-end=&quot;3181&quot; data-start=&quot;3169&quot;&gt;&lt;font style=&quot;font-size: 19px;&quot;&gt;Supplier&lt;/font&gt;&lt;/strong&gt;" style="rounded=0;whiteSpace=wrap;html=1;labelBackgroundColor=none;fillColor=#182E3E;strokeColor=#FFFFFF;fontColor=#FFFFFF;" vertex="1" parent="1">
          <mxGeometry x="630" y="900" width="120" height="60" as="geometry" />
        </mxCell>
        <mxCell id="ihPKj_Jb4i0oSnzgKSyb-250" style="edgeStyle=orthogonalEdgeStyle;rounded=0;orthogonalLoop=1;jettySize=auto;html=1;exitX=0.25;exitY=1;exitDx=0;exitDy=0;entryX=0;entryY=0.5;entryDx=0;entryDy=0;strokeColor=#23445D;" edge="1" parent="1" source="ihPKj_Jb4i0oSnzgKSyb-29" target="ihPKj_Jb4i0oSnzgKSyb-174">
          <mxGeometry relative="1" as="geometry" />
        </mxCell>
        <mxCell id="ihPKj_Jb4i0oSnzgKSyb-251" style="edgeStyle=orthogonalEdgeStyle;rounded=0;orthogonalLoop=1;jettySize=auto;html=1;exitX=0.75;exitY=1;exitDx=0;exitDy=0;entryX=1;entryY=0.5;entryDx=0;entryDy=0;strokeColor=#23445D;" edge="1" parent="1" source="ihPKj_Jb4i0oSnzgKSyb-29" target="ihPKj_Jb4i0oSnzgKSyb-175">
          <mxGeometry relative="1" as="geometry" />
        </mxCell>
        <mxCell id="ihPKj_Jb4i0oSnzgKSyb-252" style="edgeStyle=orthogonalEdgeStyle;rounded=0;orthogonalLoop=1;jettySize=auto;html=1;exitX=0;exitY=0.5;exitDx=0;exitDy=0;entryX=0;entryY=0.5;entryDx=0;entryDy=0;strokeColor=#23445D;" edge="1" parent="1" source="ihPKj_Jb4i0oSnzgKSyb-29" target="ihPKj_Jb4i0oSnzgKSyb-176">
          <mxGeometry relative="1" as="geometry" />
        </mxCell>
        <mxCell id="ihPKj_Jb4i0oSnzgKSyb-253" style="edgeStyle=orthogonalEdgeStyle;rounded=0;orthogonalLoop=1;jettySize=auto;html=1;exitX=1;exitY=0.5;exitDx=0;exitDy=0;entryX=1;entryY=0.5;entryDx=0;entryDy=0;strokeColor=#23445D;" edge="1" parent="1" source="ihPKj_Jb4i0oSnzgKSyb-29" target="ihPKj_Jb4i0oSnzgKSyb-177">
          <mxGeometry relative="1" as="geometry" />
        </mxCell>
        <mxCell id="ihPKj_Jb4i0oSnzgKSyb-29" value="&lt;strong data-end=&quot;3017&quot; data-start=&quot;3008&quot;&gt;&lt;font style=&quot;font-size: 17px;&quot;&gt;Table&lt;/font&gt;&lt;/strong&gt;" style="rounded=0;whiteSpace=wrap;html=1;labelBackgroundColor=none;fillColor=#182E3E;strokeColor=#FFFFFF;fontColor=#FFFFFF;" vertex="1" parent="1">
          <mxGeometry x="1090" y="970" width="120" height="60" as="geometry" />
        </mxCell>
        <mxCell id="ihPKj_Jb4i0oSnzgKSyb-221" style="edgeStyle=orthogonalEdgeStyle;rounded=0;orthogonalLoop=1;jettySize=auto;html=1;exitX=1;exitY=0;exitDx=0;exitDy=0;entryX=0.5;entryY=0;entryDx=0;entryDy=0;strokeColor=#23445D;" edge="1" parent="1" source="ihPKj_Jb4i0oSnzgKSyb-30" target="ihPKj_Jb4i0oSnzgKSyb-145">
          <mxGeometry relative="1" as="geometry" />
        </mxCell>
        <mxCell id="ihPKj_Jb4i0oSnzgKSyb-222" style="edgeStyle=orthogonalEdgeStyle;rounded=0;orthogonalLoop=1;jettySize=auto;html=1;exitX=1;exitY=0.5;exitDx=0;exitDy=0;entryX=0;entryY=0;entryDx=0;entryDy=0;strokeColor=#23445D;" edge="1" parent="1" source="ihPKj_Jb4i0oSnzgKSyb-145" target="ihPKj_Jb4i0oSnzgKSyb-146">
          <mxGeometry relative="1" as="geometry" />
        </mxCell>
        <mxCell id="ihPKj_Jb4i0oSnzgKSyb-223" style="edgeStyle=orthogonalEdgeStyle;rounded=0;orthogonalLoop=1;jettySize=auto;html=1;exitX=1;exitY=0.75;exitDx=0;exitDy=0;entryX=0;entryY=0;entryDx=0;entryDy=0;strokeColor=#23445D;" edge="1" parent="1" source="ihPKj_Jb4i0oSnzgKSyb-30" target="ihPKj_Jb4i0oSnzgKSyb-147">
          <mxGeometry relative="1" as="geometry" />
        </mxCell>
        <mxCell id="ihPKj_Jb4i0oSnzgKSyb-224" style="edgeStyle=orthogonalEdgeStyle;rounded=0;orthogonalLoop=1;jettySize=auto;html=1;exitX=0.75;exitY=1;exitDx=0;exitDy=0;entryX=0.5;entryY=1;entryDx=0;entryDy=0;strokeColor=#23445D;" edge="1" parent="1" source="ihPKj_Jb4i0oSnzgKSyb-30" target="ihPKj_Jb4i0oSnzgKSyb-148">
          <mxGeometry relative="1" as="geometry" />
        </mxCell>
        <mxCell id="ihPKj_Jb4i0oSnzgKSyb-30" value="&lt;font style=&quot;font-size: 14px;&quot;&gt;Reservation_Status&lt;/font&gt;" style="rounded=0;whiteSpace=wrap;html=1;labelBackgroundColor=none;fillColor=#182E3E;strokeColor=#FFFFFF;fontColor=#FFFFFF;" vertex="1" parent="1">
          <mxGeometry x="1590" y="970" width="120" height="60" as="geometry" />
        </mxCell>
        <mxCell id="ihPKj_Jb4i0oSnzgKSyb-207" style="edgeStyle=orthogonalEdgeStyle;rounded=0;orthogonalLoop=1;jettySize=auto;html=1;exitX=1;exitY=0.5;exitDx=0;exitDy=0;entryX=0.5;entryY=0;entryDx=0;entryDy=0;strokeColor=#23445D;" edge="1" parent="1" source="ihPKj_Jb4i0oSnzgKSyb-31" target="ihPKj_Jb4i0oSnzgKSyb-141">
          <mxGeometry relative="1" as="geometry" />
        </mxCell>
        <mxCell id="ihPKj_Jb4i0oSnzgKSyb-209" style="edgeStyle=orthogonalEdgeStyle;rounded=0;orthogonalLoop=1;jettySize=auto;html=1;exitX=0.5;exitY=1;exitDx=0;exitDy=0;entryX=0;entryY=1;entryDx=0;entryDy=0;strokeColor=#23445D;" edge="1" parent="1" source="ihPKj_Jb4i0oSnzgKSyb-31" target="ihPKj_Jb4i0oSnzgKSyb-143">
          <mxGeometry relative="1" as="geometry" />
        </mxCell>
        <mxCell id="ihPKj_Jb4i0oSnzgKSyb-31" value="&lt;font style=&quot;font-size: 15px;&quot;&gt;Payment Method&lt;/font&gt;" style="rounded=0;whiteSpace=wrap;html=1;labelBackgroundColor=none;fillColor=#182E3E;strokeColor=#FFFFFF;fontColor=#FFFFFF;" vertex="1" parent="1">
          <mxGeometry x="1600" y="600" width="120" height="60" as="geometry" />
        </mxCell>
        <mxCell id="ihPKj_Jb4i0oSnzgKSyb-217" style="edgeStyle=orthogonalEdgeStyle;rounded=0;orthogonalLoop=1;jettySize=auto;html=1;exitX=1;exitY=0.5;exitDx=0;exitDy=0;entryX=0;entryY=0.5;entryDx=0;entryDy=0;strokeColor=#23445D;" edge="1" parent="1" source="ihPKj_Jb4i0oSnzgKSyb-32" target="ihPKj_Jb4i0oSnzgKSyb-211">
          <mxGeometry relative="1" as="geometry" />
        </mxCell>
        <mxCell id="ihPKj_Jb4i0oSnzgKSyb-218" style="edgeStyle=orthogonalEdgeStyle;rounded=0;orthogonalLoop=1;jettySize=auto;html=1;exitX=1;exitY=1;exitDx=0;exitDy=0;entryX=0;entryY=0.5;entryDx=0;entryDy=0;strokeColor=#23445D;" edge="1" parent="1" source="ihPKj_Jb4i0oSnzgKSyb-32" target="ihPKj_Jb4i0oSnzgKSyb-212">
          <mxGeometry relative="1" as="geometry" />
        </mxCell>
        <mxCell id="ihPKj_Jb4i0oSnzgKSyb-219" style="edgeStyle=orthogonalEdgeStyle;rounded=0;orthogonalLoop=1;jettySize=auto;html=1;exitX=1;exitY=0;exitDx=0;exitDy=0;entryX=0;entryY=0.5;entryDx=0;entryDy=0;strokeColor=#23445D;" edge="1" parent="1" source="ihPKj_Jb4i0oSnzgKSyb-32" target="ihPKj_Jb4i0oSnzgKSyb-213">
          <mxGeometry relative="1" as="geometry" />
        </mxCell>
        <mxCell id="ihPKj_Jb4i0oSnzgKSyb-248" style="edgeStyle=orthogonalEdgeStyle;rounded=0;orthogonalLoop=1;jettySize=auto;html=1;exitX=0.75;exitY=1;exitDx=0;exitDy=0;entryX=0;entryY=0.5;entryDx=0;entryDy=0;strokeColor=#23445D;" edge="1" parent="1" source="ihPKj_Jb4i0oSnzgKSyb-32" target="ihPKj_Jb4i0oSnzgKSyb-214">
          <mxGeometry relative="1" as="geometry" />
        </mxCell>
        <mxCell id="ihPKj_Jb4i0oSnzgKSyb-32" value="&lt;font style=&quot;font-size: 18px;&quot;&gt;Payment&lt;/font&gt;" style="rounded=0;whiteSpace=wrap;html=1;labelBackgroundColor=none;fillColor=#182E3E;strokeColor=#FFFFFF;fontColor=#FFFFFF;" vertex="1" parent="1">
          <mxGeometry x="1590" y="800" width="120" height="60" as="geometry" />
        </mxCell>
        <mxCell id="ihPKj_Jb4i0oSnzgKSyb-203" style="edgeStyle=orthogonalEdgeStyle;rounded=0;orthogonalLoop=1;jettySize=auto;html=1;exitX=0.75;exitY=0;exitDx=0;exitDy=0;entryX=0;entryY=0;entryDx=0;entryDy=0;strokeColor=#23445D;" edge="1" parent="1" source="ihPKj_Jb4i0oSnzgKSyb-33" target="ihPKj_Jb4i0oSnzgKSyb-137">
          <mxGeometry relative="1" as="geometry" />
        </mxCell>
        <mxCell id="ihPKj_Jb4i0oSnzgKSyb-204" style="edgeStyle=orthogonalEdgeStyle;rounded=0;orthogonalLoop=1;jettySize=auto;html=1;exitX=1;exitY=0.5;exitDx=0;exitDy=0;entryX=0;entryY=0.5;entryDx=0;entryDy=0;strokeColor=#23445D;" edge="1" parent="1" source="ihPKj_Jb4i0oSnzgKSyb-33" target="ihPKj_Jb4i0oSnzgKSyb-138">
          <mxGeometry relative="1" as="geometry" />
        </mxCell>
        <mxCell id="ihPKj_Jb4i0oSnzgKSyb-205" style="edgeStyle=orthogonalEdgeStyle;rounded=0;orthogonalLoop=1;jettySize=auto;html=1;exitX=0.75;exitY=1;exitDx=0;exitDy=0;entryX=0;entryY=0.5;entryDx=0;entryDy=0;strokeColor=#23445D;" edge="1" parent="1" source="ihPKj_Jb4i0oSnzgKSyb-33" target="ihPKj_Jb4i0oSnzgKSyb-139">
          <mxGeometry relative="1" as="geometry" />
        </mxCell>
        <mxCell id="ihPKj_Jb4i0oSnzgKSyb-206" style="edgeStyle=orthogonalEdgeStyle;rounded=0;orthogonalLoop=1;jettySize=auto;html=1;exitX=0.25;exitY=1;exitDx=0;exitDy=0;entryX=0.5;entryY=1;entryDx=0;entryDy=0;strokeColor=#23445D;" edge="1" parent="1" source="ihPKj_Jb4i0oSnzgKSyb-33" target="ihPKj_Jb4i0oSnzgKSyb-140">
          <mxGeometry relative="1" as="geometry" />
        </mxCell>
        <mxCell id="ihPKj_Jb4i0oSnzgKSyb-33" value="&lt;font style=&quot;font-size: 16px;&quot;&gt;Order_Items&lt;/font&gt;" style="rounded=0;whiteSpace=wrap;html=1;labelBackgroundColor=none;fillColor=#182E3E;strokeColor=#FFFFFF;fontColor=#FFFFFF;" vertex="1" parent="1">
          <mxGeometry x="1550" y="370" width="120" height="60" as="geometry" />
        </mxCell>
        <mxCell id="ihPKj_Jb4i0oSnzgKSyb-127" style="edgeStyle=orthogonalEdgeStyle;rounded=0;orthogonalLoop=1;jettySize=auto;html=1;exitX=0.75;exitY=0;exitDx=0;exitDy=0;entryX=0;entryY=0.5;entryDx=0;entryDy=0;strokeColor=#23445D;" edge="1" parent="1" source="ihPKj_Jb4i0oSnzgKSyb-34" target="ihPKj_Jb4i0oSnzgKSyb-119">
          <mxGeometry relative="1" as="geometry" />
        </mxCell>
        <mxCell id="ihPKj_Jb4i0oSnzgKSyb-131" style="edgeStyle=orthogonalEdgeStyle;rounded=0;orthogonalLoop=1;jettySize=auto;html=1;exitX=0.75;exitY=0;exitDx=0;exitDy=0;entryX=0;entryY=0.5;entryDx=0;entryDy=0;strokeColor=#23445D;" edge="1" parent="1" source="ihPKj_Jb4i0oSnzgKSyb-34" target="ihPKj_Jb4i0oSnzgKSyb-130">
          <mxGeometry relative="1" as="geometry" />
        </mxCell>
        <mxCell id="ihPKj_Jb4i0oSnzgKSyb-34" value="&lt;font style=&quot;font-size: 19px;&quot;&gt;Order&lt;/font&gt;" style="rounded=0;whiteSpace=wrap;html=1;labelBackgroundColor=none;fillColor=#182E3E;strokeColor=#FFFFFF;fontColor=#FFFFFF;" vertex="1" parent="1">
          <mxGeometry x="1570" y="170" width="120" height="60" as="geometry" />
        </mxCell>
        <mxCell id="ihPKj_Jb4i0oSnzgKSyb-40" style="edgeStyle=orthogonalEdgeStyle;rounded=0;orthogonalLoop=1;jettySize=auto;html=1;exitX=1;exitY=0.5;exitDx=0;exitDy=0;entryX=0;entryY=0.5;entryDx=0;entryDy=0;labelBackgroundColor=none;strokeColor=#23445D;fontColor=default;" edge="1" parent="1" source="ihPKj_Jb4i0oSnzgKSyb-38" target="ihPKj_Jb4i0oSnzgKSyb-34">
          <mxGeometry relative="1" as="geometry" />
        </mxCell>
        <mxCell id="ihPKj_Jb4i0oSnzgKSyb-38" value="Places" style="rhombus;whiteSpace=wrap;html=1;labelBackgroundColor=none;fillColor=#182E3E;strokeColor=#FFFFFF;fontColor=#FFFFFF;" vertex="1" parent="1">
          <mxGeometry x="1270" y="350" width="80" height="80" as="geometry" />
        </mxCell>
        <mxCell id="ihPKj_Jb4i0oSnzgKSyb-47" style="edgeStyle=orthogonalEdgeStyle;rounded=0;orthogonalLoop=1;jettySize=auto;html=1;exitX=0.5;exitY=0;exitDx=0;exitDy=0;entryX=1;entryY=0.5;entryDx=0;entryDy=0;labelBackgroundColor=none;strokeColor=#23445D;fontColor=default;" edge="1" parent="1" source="ihPKj_Jb4i0oSnzgKSyb-45" target="ihPKj_Jb4i0oSnzgKSyb-2">
          <mxGeometry relative="1" as="geometry" />
        </mxCell>
        <mxCell id="ihPKj_Jb4i0oSnzgKSyb-45" value="Gives" style="rhombus;whiteSpace=wrap;html=1;labelBackgroundColor=none;fillColor=#182E3E;strokeColor=#FFFFFF;fontColor=#FFFFFF;" vertex="1" parent="1">
          <mxGeometry x="710" y="200" width="80" height="80" as="geometry" />
        </mxCell>
        <mxCell id="ihPKj_Jb4i0oSnzgKSyb-50" value="Assigned To" style="rhombus;whiteSpace=wrap;html=1;labelBackgroundColor=none;fillColor=#182E3E;strokeColor=#FFFFFF;fontColor=#FFFFFF;" vertex="1" parent="1">
          <mxGeometry x="930" y="210" width="80" height="80" as="geometry" />
        </mxCell>
        <mxCell id="ihPKj_Jb4i0oSnzgKSyb-53" style="edgeStyle=orthogonalEdgeStyle;rounded=0;orthogonalLoop=1;jettySize=auto;html=1;exitX=0.5;exitY=0;exitDx=0;exitDy=0;entryX=0.414;entryY=1.006;entryDx=0;entryDy=0;entryPerimeter=0;labelBackgroundColor=none;strokeColor=#23445D;fontColor=default;" edge="1" parent="1" source="ihPKj_Jb4i0oSnzgKSyb-50" target="ihPKj_Jb4i0oSnzgKSyb-3">
          <mxGeometry relative="1" as="geometry" />
        </mxCell>
        <mxCell id="ihPKj_Jb4i0oSnzgKSyb-56" style="edgeStyle=orthogonalEdgeStyle;rounded=0;orthogonalLoop=1;jettySize=auto;html=1;exitX=0.5;exitY=0;exitDx=0;exitDy=0;entryX=0;entryY=0.5;entryDx=0;entryDy=0;labelBackgroundColor=none;strokeColor=#23445D;fontColor=default;" edge="1" parent="1" source="ihPKj_Jb4i0oSnzgKSyb-54" target="ihPKj_Jb4i0oSnzgKSyb-23">
          <mxGeometry relative="1" as="geometry" />
        </mxCell>
        <mxCell id="ihPKj_Jb4i0oSnzgKSyb-54" value="Checks" style="rhombus;whiteSpace=wrap;html=1;labelBackgroundColor=none;fillColor=#182E3E;strokeColor=#FFFFFF;fontColor=#FFFFFF;" vertex="1" parent="1">
          <mxGeometry x="1130" y="210" width="80" height="80" as="geometry" />
        </mxCell>
        <mxCell id="ihPKj_Jb4i0oSnzgKSyb-61" style="edgeStyle=orthogonalEdgeStyle;rounded=0;orthogonalLoop=1;jettySize=auto;html=1;exitX=0.5;exitY=1;exitDx=0;exitDy=0;entryX=0;entryY=0.25;entryDx=0;entryDy=0;labelBackgroundColor=none;strokeColor=#23445D;fontColor=default;" edge="1" parent="1" source="ihPKj_Jb4i0oSnzgKSyb-60" target="ihPKj_Jb4i0oSnzgKSyb-33">
          <mxGeometry relative="1" as="geometry" />
        </mxCell>
        <mxCell id="ihPKj_Jb4i0oSnzgKSyb-60" value="have" style="rhombus;whiteSpace=wrap;html=1;labelBackgroundColor=none;fillColor=#182E3E;strokeColor=#FFFFFF;fontColor=#FFFFFF;" vertex="1" parent="1">
          <mxGeometry x="1360" y="510" width="80" height="70" as="geometry" />
        </mxCell>
        <mxCell id="ihPKj_Jb4i0oSnzgKSyb-66" style="edgeStyle=orthogonalEdgeStyle;rounded=0;orthogonalLoop=1;jettySize=auto;html=1;exitX=1;exitY=0.5;exitDx=0;exitDy=0;entryX=0;entryY=0.75;entryDx=0;entryDy=0;labelBackgroundColor=none;strokeColor=#23445D;fontColor=default;" edge="1" parent="1" source="ihPKj_Jb4i0oSnzgKSyb-63" target="ihPKj_Jb4i0oSnzgKSyb-31">
          <mxGeometry relative="1" as="geometry" />
        </mxCell>
        <mxCell id="ihPKj_Jb4i0oSnzgKSyb-63" value="selects" style="rhombus;whiteSpace=wrap;html=1;labelBackgroundColor=none;fillColor=#182E3E;strokeColor=#FFFFFF;fontColor=#FFFFFF;" vertex="1" parent="1">
          <mxGeometry x="1360" y="640" width="80" height="70" as="geometry" />
        </mxCell>
        <mxCell id="ihPKj_Jb4i0oSnzgKSyb-68" style="edgeStyle=orthogonalEdgeStyle;rounded=0;orthogonalLoop=1;jettySize=auto;html=1;exitX=1;exitY=0.5;exitDx=0;exitDy=0;entryX=0;entryY=0.75;entryDx=0;entryDy=0;labelBackgroundColor=none;strokeColor=#23445D;fontColor=default;" edge="1" parent="1" source="ihPKj_Jb4i0oSnzgKSyb-64" target="ihPKj_Jb4i0oSnzgKSyb-32">
          <mxGeometry relative="1" as="geometry" />
        </mxCell>
        <mxCell id="ihPKj_Jb4i0oSnzgKSyb-64" value="Does" style="rhombus;whiteSpace=wrap;html=1;labelBackgroundColor=none;fillColor=#182E3E;strokeColor=#FFFFFF;fontColor=#FFFFFF;" vertex="1" parent="1">
          <mxGeometry x="1360" y="770" width="80" height="70" as="geometry" />
        </mxCell>
        <mxCell id="ihPKj_Jb4i0oSnzgKSyb-71" style="edgeStyle=orthogonalEdgeStyle;rounded=0;orthogonalLoop=1;jettySize=auto;html=1;exitX=0.5;exitY=1;exitDx=0;exitDy=0;strokeColor=#23445D;" edge="1" parent="1" source="ihPKj_Jb4i0oSnzgKSyb-69" target="ihPKj_Jb4i0oSnzgKSyb-26">
          <mxGeometry relative="1" as="geometry" />
        </mxCell>
        <mxCell id="ihPKj_Jb4i0oSnzgKSyb-69" value="Checks" style="rhombus;whiteSpace=wrap;html=1;labelBackgroundColor=none;fillColor=#182E3E;strokeColor=#FFFFFF;fontColor=#FFFFFF;" vertex="1" parent="1">
          <mxGeometry x="520" y="690" width="80" height="80" as="geometry" />
        </mxCell>
        <mxCell id="ihPKj_Jb4i0oSnzgKSyb-76" style="edgeStyle=orthogonalEdgeStyle;rounded=0;orthogonalLoop=1;jettySize=auto;html=1;exitX=0.5;exitY=1;exitDx=0;exitDy=0;entryX=0;entryY=0.75;entryDx=0;entryDy=0;strokeColor=#23445D;" edge="1" parent="1" source="ihPKj_Jb4i0oSnzgKSyb-74" target="ihPKj_Jb4i0oSnzgKSyb-29">
          <mxGeometry relative="1" as="geometry" />
        </mxCell>
        <mxCell id="ihPKj_Jb4i0oSnzgKSyb-74" value="Assigned" style="rhombus;whiteSpace=wrap;html=1;labelBackgroundColor=none;fillColor=#182E3E;strokeColor=#FFFFFF;fontColor=#FFFFFF;" vertex="1" parent="1">
          <mxGeometry x="920" y="910" width="80" height="80" as="geometry" />
        </mxCell>
        <mxCell id="ihPKj_Jb4i0oSnzgKSyb-83" style="edgeStyle=orthogonalEdgeStyle;rounded=0;orthogonalLoop=1;jettySize=auto;html=1;exitX=0;exitY=0.5;exitDx=0;exitDy=0;strokeColor=#23445D;" edge="1" parent="1" source="ihPKj_Jb4i0oSnzgKSyb-79" target="ihPKj_Jb4i0oSnzgKSyb-27">
          <mxGeometry relative="1" as="geometry" />
        </mxCell>
        <mxCell id="ihPKj_Jb4i0oSnzgKSyb-79" value="Supplies" style="rhombus;whiteSpace=wrap;html=1;labelBackgroundColor=none;fillColor=#182E3E;strokeColor=#FFFFFF;fontColor=#FFFFFF;" vertex="1" parent="1">
          <mxGeometry x="470" y="870" width="80" height="80" as="geometry" />
        </mxCell>
        <mxCell id="ihPKj_Jb4i0oSnzgKSyb-86" value="" style="edgeStyle=orthogonalEdgeStyle;rounded=0;orthogonalLoop=1;jettySize=auto;html=1;strokeColor=#23445D;" edge="1" parent="1" target="ihPKj_Jb4i0oSnzgKSyb-27">
          <mxGeometry relative="1" as="geometry">
            <mxPoint x="280.0000000000009" y="789.9999999999991" as="sourcePoint" />
          </mxGeometry>
        </mxCell>
        <mxCell id="ihPKj_Jb4i0oSnzgKSyb-84" value="Accessed&lt;div&gt;By&lt;/div&gt;" style="rhombus;whiteSpace=wrap;html=1;labelBackgroundColor=none;fillColor=#182E3E;strokeColor=#FFFFFF;fontColor=#FFFFFF;" vertex="1" parent="1">
          <mxGeometry x="240" y="700" width="80" height="80" as="geometry" />
        </mxCell>
        <mxCell id="ihPKj_Jb4i0oSnzgKSyb-89" style="edgeStyle=orthogonalEdgeStyle;rounded=0;orthogonalLoop=1;jettySize=auto;html=1;entryX=0;entryY=0.5;entryDx=0;entryDy=0;strokeColor=#23445D;" edge="1" parent="1" source="ihPKj_Jb4i0oSnzgKSyb-87" target="ihPKj_Jb4i0oSnzgKSyb-30">
          <mxGeometry relative="1" as="geometry" />
        </mxCell>
        <mxCell id="ihPKj_Jb4i0oSnzgKSyb-87" value="checks" style="rhombus;whiteSpace=wrap;html=1;labelBackgroundColor=none;fillColor=#182E3E;strokeColor=#FFFFFF;fontColor=#FFFFFF;" vertex="1" parent="1">
          <mxGeometry x="1370" y="875" width="80" height="70" as="geometry" />
        </mxCell>
        <mxCell id="ihPKj_Jb4i0oSnzgKSyb-90" style="edgeStyle=orthogonalEdgeStyle;rounded=0;orthogonalLoop=1;jettySize=auto;html=1;exitX=1;exitY=0.5;exitDx=0;exitDy=0;entryX=1;entryY=0.25;entryDx=0;entryDy=0;strokeColor=#23445D;" edge="1" parent="1" source="ihPKj_Jb4i0oSnzgKSyb-24" target="ihPKj_Jb4i0oSnzgKSyb-24">
          <mxGeometry relative="1" as="geometry" />
        </mxCell>
        <mxCell id="ihPKj_Jb4i0oSnzgKSyb-101" value="" style="edgeStyle=orthogonalEdgeStyle;rounded=0;orthogonalLoop=1;jettySize=auto;html=1;strokeColor=#23445D;" edge="1" parent="1" source="ihPKj_Jb4i0oSnzgKSyb-98" target="ihPKj_Jb4i0oSnzgKSyb-34">
          <mxGeometry relative="1" as="geometry" />
        </mxCell>
        <mxCell id="ihPKj_Jb4i0oSnzgKSyb-98" value="Takes" style="rhombus;whiteSpace=wrap;html=1;labelBackgroundColor=none;fillColor=#182E3E;strokeColor=#FFFFFF;fontColor=#FFFFFF;" vertex="1" parent="1">
          <mxGeometry x="1570" y="30" width="80" height="80" as="geometry" />
        </mxCell>
        <mxCell id="ihPKj_Jb4i0oSnzgKSyb-107" style="edgeStyle=orthogonalEdgeStyle;rounded=0;orthogonalLoop=1;jettySize=auto;html=1;exitX=0;exitY=0.5;exitDx=0;exitDy=0;entryX=1;entryY=0.5;entryDx=0;entryDy=0;strokeColor=#23445D;" edge="1" parent="1" source="ihPKj_Jb4i0oSnzgKSyb-104" target="ihPKj_Jb4i0oSnzgKSyb-25">
          <mxGeometry relative="1" as="geometry" />
        </mxCell>
        <mxCell id="ihPKj_Jb4i0oSnzgKSyb-104" value="Makes&quot;" style="rhombus;whiteSpace=wrap;html=1;labelBackgroundColor=none;fillColor=#182E3E;strokeColor=#FFFFFF;fontColor=#FFFFFF;" vertex="1" parent="1">
          <mxGeometry x="710" y="505" width="80" height="80" as="geometry" />
        </mxCell>
        <mxCell id="ihPKj_Jb4i0oSnzgKSyb-113" value="&lt;u&gt;Status_ID&lt;/u&gt;" style="ellipse;whiteSpace=wrap;html=1;strokeColor=#FFFFFF;fontColor=#FFFFFF;fillColor=#182E3E;" vertex="1" parent="1">
          <mxGeometry x="760" y="770" width="68" height="40" as="geometry" />
        </mxCell>
        <mxCell id="ihPKj_Jb4i0oSnzgKSyb-114" value="Status_Name" style="ellipse;whiteSpace=wrap;html=1;strokeColor=#FFFFFF;fontColor=#FFFFFF;fillColor=#182E3E;" vertex="1" parent="1">
          <mxGeometry x="760" y="810" width="86" height="40" as="geometry" />
        </mxCell>
        <mxCell id="ihPKj_Jb4i0oSnzgKSyb-119" value="&lt;u&gt;Order_ID&lt;/u&gt;" style="ellipse;whiteSpace=wrap;html=1;strokeColor=#FFFFFF;fontColor=#FFFFFF;fillColor=#182E3E;" vertex="1" parent="1">
          <mxGeometry x="1730" y="-36" width="106" height="66" as="geometry" />
        </mxCell>
        <mxCell id="ihPKj_Jb4i0oSnzgKSyb-121" value="Order_Date&amp;nbsp;" style="ellipse;whiteSpace=wrap;html=1;strokeColor=#FFFFFF;fontColor=#FFFFFF;fillColor=#182E3E;" vertex="1" parent="1">
          <mxGeometry x="1734" y="44" width="98" height="56" as="geometry" />
        </mxCell>
        <mxCell id="ihPKj_Jb4i0oSnzgKSyb-122" value="" style="ellipse;whiteSpace=wrap;html=1;strokeColor=#FFFFFF;fontColor=#FFFFFF;fillColor=#182E3E;" vertex="1" parent="1">
          <mxGeometry x="2890" y="-780" width="60" height="40" as="geometry" />
        </mxCell>
        <mxCell id="ihPKj_Jb4i0oSnzgKSyb-124" value="Total_Amount" style="ellipse;whiteSpace=wrap;html=1;strokeColor=#FFFFFF;fontColor=#FFFFFF;fillColor=#182E3E;" vertex="1" parent="1">
          <mxGeometry x="1738" y="110" width="98" height="72" as="geometry" />
        </mxCell>
        <mxCell id="ihPKj_Jb4i0oSnzgKSyb-125" style="edgeStyle=orthogonalEdgeStyle;rounded=0;orthogonalLoop=1;jettySize=auto;html=1;exitX=0.75;exitY=0;exitDx=0;exitDy=0;entryX=0;entryY=0.25;entryDx=0;entryDy=0;entryPerimeter=0;strokeColor=#23445D;" edge="1" parent="1" source="ihPKj_Jb4i0oSnzgKSyb-34" target="ihPKj_Jb4i0oSnzgKSyb-124">
          <mxGeometry relative="1" as="geometry" />
        </mxCell>
        <mxCell id="ihPKj_Jb4i0oSnzgKSyb-126" style="edgeStyle=orthogonalEdgeStyle;rounded=0;orthogonalLoop=1;jettySize=auto;html=1;exitX=0.75;exitY=0;exitDx=0;exitDy=0;entryX=0;entryY=0.25;entryDx=0;entryDy=0;entryPerimeter=0;strokeColor=#23445D;" edge="1" parent="1" source="ihPKj_Jb4i0oSnzgKSyb-34" target="ihPKj_Jb4i0oSnzgKSyb-121">
          <mxGeometry relative="1" as="geometry" />
        </mxCell>
        <mxCell id="ihPKj_Jb4i0oSnzgKSyb-292" value="" style="edgeStyle=orthogonalEdgeStyle;rounded=0;orthogonalLoop=1;jettySize=auto;html=1;strokeColor=#23445D;" edge="1" parent="1" source="ihPKj_Jb4i0oSnzgKSyb-130" target="ihPKj_Jb4i0oSnzgKSyb-124">
          <mxGeometry relative="1" as="geometry" />
        </mxCell>
        <mxCell id="ihPKj_Jb4i0oSnzgKSyb-130" value="&lt;font style=&quot;font-size: 15px;&quot;&gt;Status&lt;/font&gt;" style="ellipse;whiteSpace=wrap;html=1;strokeColor=#FFFFFF;fontColor=#FFFFFF;fillColor=#182E3E;" vertex="1" parent="1">
          <mxGeometry x="1738" y="190" width="98" height="64" as="geometry" />
        </mxCell>
        <mxCell id="ihPKj_Jb4i0oSnzgKSyb-137" value="&lt;u&gt;Order_Item_ID&lt;/u&gt;" style="ellipse;whiteSpace=wrap;html=1;strokeColor=#FFFFFF;fontColor=#FFFFFF;fillColor=#182E3E;" vertex="1" parent="1">
          <mxGeometry x="1790" y="305" width="82" height="40" as="geometry" />
        </mxCell>
        <mxCell id="ihPKj_Jb4i0oSnzgKSyb-138" value="Item_ID" style="ellipse;whiteSpace=wrap;html=1;strokeColor=#FFFFFF;fontColor=#FFFFFF;fillColor=#182E3E;" vertex="1" parent="1">
          <mxGeometry x="1790" y="355" width="60" height="40" as="geometry" />
        </mxCell>
        <mxCell id="ihPKj_Jb4i0oSnzgKSyb-139" value="Quantity" style="ellipse;whiteSpace=wrap;html=1;strokeColor=#FFFFFF;fontColor=#FFFFFF;fillColor=#182E3E;" vertex="1" parent="1">
          <mxGeometry x="1790" y="405" width="60" height="40" as="geometry" />
        </mxCell>
        <mxCell id="ihPKj_Jb4i0oSnzgKSyb-140" value="Subtotal" style="ellipse;whiteSpace=wrap;html=1;strokeColor=#FFFFFF;fontColor=#FFFFFF;fillColor=#182E3E;" vertex="1" parent="1">
          <mxGeometry x="1790" y="455" width="60" height="40" as="geometry" />
        </mxCell>
        <mxCell id="ihPKj_Jb4i0oSnzgKSyb-141" value="&lt;u&gt;&lt;em data-end=&quot;2379&quot; data-start=&quot;2368&quot;&gt;Method_ID&lt;/em&gt;,&lt;/u&gt;" style="ellipse;whiteSpace=wrap;html=1;strokeColor=#FFFFFF;fontColor=#FFFFFF;fillColor=#182E3E;" vertex="1" parent="1">
          <mxGeometry x="1820" y="550" width="88" height="40" as="geometry" />
        </mxCell>
        <mxCell id="ihPKj_Jb4i0oSnzgKSyb-143" value="Method_Name" style="ellipse;whiteSpace=wrap;html=1;strokeColor=#FFFFFF;fontColor=#FFFFFF;fillColor=#182E3E;" vertex="1" parent="1">
          <mxGeometry x="1820" y="625" width="88" height="41" as="geometry" />
        </mxCell>
        <mxCell id="ihPKj_Jb4i0oSnzgKSyb-146" value="User_ID," style="ellipse;whiteSpace=wrap;html=1;strokeColor=#FFFFFF;fontColor=#FFFFFF;fillColor=#182E3E;" vertex="1" parent="1">
          <mxGeometry x="1836" y="1040" width="90" height="40" as="geometry" />
        </mxCell>
        <mxCell id="ihPKj_Jb4i0oSnzgKSyb-147" value="Date," style="ellipse;whiteSpace=wrap;html=1;strokeColor=#FFFFFF;fontColor=#FFFFFF;fillColor=#182E3E;" vertex="1" parent="1">
          <mxGeometry x="1824" y="1090" width="84" height="40" as="geometry" />
        </mxCell>
        <mxCell id="ihPKj_Jb4i0oSnzgKSyb-148" value="Number_of_People" style="ellipse;whiteSpace=wrap;html=1;strokeColor=#FFFFFF;fontColor=#FFFFFF;fillColor=#182E3E;" vertex="1" parent="1">
          <mxGeometry x="1801" y="1140" width="125" height="40" as="geometry" />
        </mxCell>
        <mxCell id="ihPKj_Jb4i0oSnzgKSyb-149" value="Category_ID" style="ellipse;whiteSpace=wrap;html=1;strokeColor=#FFFFFF;fontColor=#FFFFFF;fillColor=#182E3E;" vertex="1" parent="1">
          <mxGeometry x="670" y="1130" width="86" height="40" as="geometry" />
        </mxCell>
        <mxCell id="ihPKj_Jb4i0oSnzgKSyb-150" value="Contact" style="ellipse;whiteSpace=wrap;html=1;strokeColor=#FFFFFF;fontColor=#FFFFFF;fillColor=#182E3E;" vertex="1" parent="1">
          <mxGeometry x="670" y="1080" width="60" height="40" as="geometry" />
        </mxCell>
        <mxCell id="ihPKj_Jb4i0oSnzgKSyb-151" value="Name" style="ellipse;whiteSpace=wrap;html=1;strokeColor=#FFFFFF;fontColor=#FFFFFF;fillColor=#182E3E;" vertex="1" parent="1">
          <mxGeometry x="670" y="1030" width="60" height="40" as="geometry" />
        </mxCell>
        <mxCell id="ihPKj_Jb4i0oSnzgKSyb-152" value="&lt;u&gt;Supplier_ID&lt;/u&gt;" style="ellipse;whiteSpace=wrap;html=1;strokeColor=#FFFFFF;fontColor=#FFFFFF;fillColor=#182E3E;" vertex="1" parent="1">
          <mxGeometry x="670" y="980" width="68" height="40" as="geometry" />
        </mxCell>
        <mxCell id="ihPKj_Jb4i0oSnzgKSyb-153" value="Time" style="ellipse;whiteSpace=wrap;html=1;strokeColor=#FFFFFF;fontColor=#FFFFFF;fillColor=#182E3E;" vertex="1" parent="1">
          <mxGeometry x="110" y="635" width="60" height="40" as="geometry" />
        </mxCell>
        <mxCell id="ihPKj_Jb4i0oSnzgKSyb-154" value="Date" style="ellipse;whiteSpace=wrap;html=1;strokeColor=#FFFFFF;fontColor=#FFFFFF;fillColor=#182E3E;" vertex="1" parent="1">
          <mxGeometry x="110" y="585" width="60" height="40" as="geometry" />
        </mxCell>
        <mxCell id="ihPKj_Jb4i0oSnzgKSyb-155" value="User_ID" style="ellipse;whiteSpace=wrap;html=1;strokeColor=#FFFFFF;fontColor=#FFFFFF;fillColor=#182E3E;" vertex="1" parent="1">
          <mxGeometry x="110" y="535" width="60" height="40" as="geometry" />
        </mxCell>
        <mxCell id="ihPKj_Jb4i0oSnzgKSyb-156" value="&lt;u&gt;Status_ID&lt;/u&gt;" style="ellipse;whiteSpace=wrap;html=1;strokeColor=#FFFFFF;fontColor=#FFFFFF;fillColor=#182E3E;" vertex="1" parent="1">
          <mxGeometry x="110" y="485" width="67.5" height="45" as="geometry" />
        </mxCell>
        <mxCell id="ihPKj_Jb4i0oSnzgKSyb-157" value="&lt;u&gt;Staff_ID&lt;/u&gt;" style="ellipse;whiteSpace=wrap;html=1;strokeColor=#FFFFFF;fontColor=#FFFFFF;fillColor=#182E3E;" vertex="1" parent="1">
          <mxGeometry x="140" y="170" width="67.5" height="45" as="geometry" />
        </mxCell>
        <mxCell id="ihPKj_Jb4i0oSnzgKSyb-158" value="Name" style="ellipse;whiteSpace=wrap;html=1;strokeColor=#FFFFFF;fontColor=#FFFFFF;fillColor=#182E3E;" vertex="1" parent="1">
          <mxGeometry x="140" y="220" width="60" height="40" as="geometry" />
        </mxCell>
        <mxCell id="ihPKj_Jb4i0oSnzgKSyb-159" value="Email," style="ellipse;whiteSpace=wrap;html=1;strokeColor=#FFFFFF;fontColor=#FFFFFF;fillColor=#182E3E;" vertex="1" parent="1">
          <mxGeometry x="140" y="270" width="60" height="40" as="geometry" />
        </mxCell>
        <mxCell id="ihPKj_Jb4i0oSnzgKSyb-160" value="Phone" style="ellipse;whiteSpace=wrap;html=1;strokeColor=#FFFFFF;fontColor=#FFFFFF;fillColor=#182E3E;" vertex="1" parent="1">
          <mxGeometry x="140" y="320" width="60" height="40" as="geometry" />
        </mxCell>
        <mxCell id="ihPKj_Jb4i0oSnzgKSyb-161" value="&lt;u&gt;Feedback_ID&lt;/u&gt;" style="ellipse;whiteSpace=wrap;html=1;strokeColor=#FFFFFF;fontColor=#FFFFFF;fillColor=#182E3E;" vertex="1" parent="1">
          <mxGeometry x="177.5" y="-130" width="92.5" height="45" as="geometry" />
        </mxCell>
        <mxCell id="ihPKj_Jb4i0oSnzgKSyb-162" value="Order_ID" style="ellipse;whiteSpace=wrap;html=1;strokeColor=#FFFFFF;fontColor=#FFFFFF;fillColor=#182E3E;" vertex="1" parent="1">
          <mxGeometry x="162" y="-80" width="75.5" height="40" as="geometry" />
        </mxCell>
        <mxCell id="ihPKj_Jb4i0oSnzgKSyb-163" value="Rating" style="ellipse;whiteSpace=wrap;html=1;strokeColor=#FFFFFF;fontColor=#FFFFFF;fillColor=#182E3E;" vertex="1" parent="1">
          <mxGeometry x="177.5" y="-30" width="60" height="40" as="geometry" />
        </mxCell>
        <mxCell id="ihPKj_Jb4i0oSnzgKSyb-164" value="Commen" style="ellipse;whiteSpace=wrap;html=1;strokeColor=#FFFFFF;fontColor=#FFFFFF;fillColor=#182E3E;" vertex="1" parent="1">
          <mxGeometry x="177.5" y="20" width="60" height="40" as="geometry" />
        </mxCell>
        <mxCell id="ihPKj_Jb4i0oSnzgKSyb-165" value="(&lt;em data-end=&quot;425&quot; data-start=&quot;416&quot;&gt;&lt;u&gt;Role_ID&lt;/u&gt;&lt;/em&gt;" style="ellipse;whiteSpace=wrap;html=1;strokeColor=#FFFFFF;fontColor=#FFFFFF;fillColor=#182E3E;" vertex="1" parent="1">
          <mxGeometry x="930" y="-155" width="67.5" height="45" as="geometry" />
        </mxCell>
        <mxCell id="ihPKj_Jb4i0oSnzgKSyb-166" value="Role_Name" style="ellipse;whiteSpace=wrap;html=1;strokeColor=#FFFFFF;fontColor=#FFFFFF;fillColor=#182E3E;" vertex="1" parent="1">
          <mxGeometry x="930" y="-105" width="60" height="40" as="geometry" />
        </mxCell>
        <mxCell id="ihPKj_Jb4i0oSnzgKSyb-169" value="&lt;u&gt;Item_ID&lt;/u&gt;" style="ellipse;whiteSpace=wrap;html=1;strokeColor=#FFFFFF;fontColor=#FFFFFF;fillColor=#182E3E;" vertex="1" parent="1">
          <mxGeometry x="1297" y="-190" width="67.5" height="45" as="geometry" />
        </mxCell>
        <mxCell id="ihPKj_Jb4i0oSnzgKSyb-170" value="&amp;nbsp;Name" style="ellipse;whiteSpace=wrap;html=1;strokeColor=#FFFFFF;fontColor=#FFFFFF;fillColor=#182E3E;" vertex="1" parent="1">
          <mxGeometry x="1297" y="-140" width="60" height="40" as="geometry" />
        </mxCell>
        <mxCell id="ihPKj_Jb4i0oSnzgKSyb-171" value="Price" style="ellipse;whiteSpace=wrap;html=1;strokeColor=#FFFFFF;fontColor=#FFFFFF;fillColor=#182E3E;" vertex="1" parent="1">
          <mxGeometry x="1297" y="-90" width="60" height="40" as="geometry" />
        </mxCell>
        <mxCell id="ihPKj_Jb4i0oSnzgKSyb-172" value="Stock_Availability" style="ellipse;whiteSpace=wrap;html=1;strokeColor=#FFFFFF;fontColor=#FFFFFF;fillColor=#182E3E;" vertex="1" parent="1">
          <mxGeometry x="1286.25" y="-40" width="89" height="40" as="geometry" />
        </mxCell>
        <mxCell id="ihPKj_Jb4i0oSnzgKSyb-174" value="&lt;u&gt;Table_ID&lt;/u&gt;" style="ellipse;whiteSpace=wrap;html=1;strokeColor=#FFFFFF;fontColor=#FFFFFF;fillColor=#182E3E;" vertex="1" parent="1">
          <mxGeometry x="1140" y="1055" width="60" height="40" as="geometry" />
        </mxCell>
        <mxCell id="ihPKj_Jb4i0oSnzgKSyb-175" value="Capacity," style="ellipse;whiteSpace=wrap;html=1;strokeColor=#FFFFFF;fontColor=#FFFFFF;fillColor=#182E3E;" vertex="1" parent="1">
          <mxGeometry x="1140" y="1105" width="60" height="40" as="geometry" />
        </mxCell>
        <mxCell id="ihPKj_Jb4i0oSnzgKSyb-176" value="Location," style="ellipse;whiteSpace=wrap;html=1;strokeColor=#FFFFFF;fontColor=#FFFFFF;fillColor=#182E3E;" vertex="1" parent="1">
          <mxGeometry x="1140" y="1155" width="60" height="40" as="geometry" />
        </mxCell>
        <mxCell id="ihPKj_Jb4i0oSnzgKSyb-177" value="Status" style="ellipse;whiteSpace=wrap;html=1;strokeColor=#FFFFFF;fontColor=#FFFFFF;fillColor=#182E3E;" vertex="1" parent="1">
          <mxGeometry x="1140" y="1205" width="60" height="40" as="geometry" />
        </mxCell>
        <mxCell id="ihPKj_Jb4i0oSnzgKSyb-180" value="Password" style="ellipse;whiteSpace=wrap;html=1;strokeColor=#FFFFFF;fontColor=#FFFFFF;fillColor=#182E3E;aspect=fixed;" vertex="1" parent="1">
          <mxGeometry x="1090" y="558.33" width="100" height="66.67" as="geometry" />
        </mxCell>
        <mxCell id="ihPKj_Jb4i0oSnzgKSyb-181" value="Email" style="ellipse;whiteSpace=wrap;html=1;strokeColor=#FFFFFF;fontColor=#FFFFFF;fillColor=#182E3E;aspect=fixed;" vertex="1" parent="1">
          <mxGeometry x="1090" y="485.17" width="98" height="65.33" as="geometry" />
        </mxCell>
        <mxCell id="ihPKj_Jb4i0oSnzgKSyb-182" value="&lt;em data-start=&quot;73&quot; data-end=&quot;82&quot;&gt;User_ID&lt;/em&gt;," style="ellipse;whiteSpace=wrap;html=1;strokeColor=#FFFFFF;fontColor=#FFFFFF;fillColor=#182E3E;fontStyle=4;aspect=fixed;" vertex="1" parent="1">
          <mxGeometry x="1083.25" y="425" width="106.26" height="56" as="geometry" />
        </mxCell>
        <mxCell id="ihPKj_Jb4i0oSnzgKSyb-186" value="&lt;u&gt;Inventory Id&lt;/u&gt;" style="ellipse;whiteSpace=wrap;html=1;strokeColor=#FFFFFF;fontColor=#FFFFFF;fillColor=#182E3E;" vertex="1" parent="1">
          <mxGeometry x="290" y="990" width="60" height="40" as="geometry" />
        </mxCell>
        <mxCell id="ihPKj_Jb4i0oSnzgKSyb-187" value="Noof supplies&amp;nbsp;" style="ellipse;whiteSpace=wrap;html=1;strokeColor=#FFFFFF;fontColor=#FFFFFF;fillColor=#182E3E;" vertex="1" parent="1">
          <mxGeometry x="290" y="1040" width="60" height="40" as="geometry" />
        </mxCell>
        <mxCell id="ihPKj_Jb4i0oSnzgKSyb-188" value="Dates" style="ellipse;whiteSpace=wrap;html=1;strokeColor=#FFFFFF;fontColor=#FFFFFF;fillColor=#182E3E;" vertex="1" parent="1">
          <mxGeometry x="290" y="1090" width="60" height="40" as="geometry" />
        </mxCell>
        <mxCell id="ihPKj_Jb4i0oSnzgKSyb-189" value="Noof Stocks" style="ellipse;whiteSpace=wrap;html=1;strokeColor=#FFFFFF;fontColor=#FFFFFF;fillColor=#182E3E;" vertex="1" parent="1">
          <mxGeometry x="290" y="1140" width="60" height="40" as="geometry" />
        </mxCell>
        <mxCell id="ihPKj_Jb4i0oSnzgKSyb-211" value="&lt;u&gt;&lt;em data-end=&quot;1678&quot; data-start=&quot;1666&quot;&gt;Payment_ID&lt;/em&gt;,&lt;/u&gt;" style="ellipse;whiteSpace=wrap;html=1;strokeColor=#FFFFFF;fontColor=#FFFFFF;fillColor=#182E3E;" vertex="1" parent="1">
          <mxGeometry x="1962" y="718" width="90" height="62" as="geometry" />
        </mxCell>
        <mxCell id="ihPKj_Jb4i0oSnzgKSyb-212" value="Amount," style="ellipse;whiteSpace=wrap;html=1;strokeColor=#FFFFFF;fontColor=#FFFFFF;fillColor=#182E3E;" vertex="1" parent="1">
          <mxGeometry x="1969" y="791" width="83" height="54" as="geometry" />
        </mxCell>
        <mxCell id="ihPKj_Jb4i0oSnzgKSyb-213" value="Timestamp" style="ellipse;whiteSpace=wrap;html=1;strokeColor=#FFFFFF;fontColor=#FFFFFF;fillColor=#182E3E;" vertex="1" parent="1">
          <mxGeometry x="1966.5" y="850" width="90" height="58" as="geometry" />
        </mxCell>
        <mxCell id="ihPKj_Jb4i0oSnzgKSyb-214" value="Payment_Status" style="ellipse;whiteSpace=wrap;html=1;strokeColor=#FFFFFF;fontColor=#FFFFFF;fillColor=#182E3E;" vertex="1" parent="1">
          <mxGeometry x="1953" y="916" width="117" height="74" as="geometry" />
        </mxCell>
        <mxCell id="ihPKj_Jb4i0oSnzgKSyb-239" style="edgeStyle=orthogonalEdgeStyle;rounded=0;orthogonalLoop=1;jettySize=auto;html=1;exitX=0.25;exitY=1;exitDx=0;exitDy=0;entryX=1.026;entryY=0.825;entryDx=0;entryDy=0;entryPerimeter=0;strokeColor=#23445D;" edge="1" parent="1" source="ihPKj_Jb4i0oSnzgKSyb-22" target="ihPKj_Jb4i0oSnzgKSyb-159">
          <mxGeometry relative="1" as="geometry" />
        </mxCell>
        <mxCell id="ihPKj_Jb4i0oSnzgKSyb-249" value="" style="edgeStyle=orthogonalEdgeStyle;rounded=0;orthogonalLoop=1;jettySize=auto;html=1;exitX=1;exitY=0.5;exitDx=0;exitDy=0;entryX=0;entryY=0;entryDx=0;entryDy=0;strokeColor=#23445D;" edge="1" parent="1" source="ihPKj_Jb4i0oSnzgKSyb-30" target="ihPKj_Jb4i0oSnzgKSyb-145">
          <mxGeometry relative="1" as="geometry">
            <mxPoint x="1710" y="1000" as="sourcePoint" />
            <mxPoint x="1857" y="1046" as="targetPoint" />
          </mxGeometry>
        </mxCell>
        <mxCell id="ihPKj_Jb4i0oSnzgKSyb-145" value="&lt;u&gt;(&lt;em data-end=&quot;1869&quot; data-start=&quot;1853&quot;&gt;Reservation_ID&lt;/em&gt;&lt;/u&gt;" style="ellipse;whiteSpace=wrap;html=1;strokeColor=#FFFFFF;fontColor=#FFFFFF;fillColor=#182E3E;" vertex="1" parent="1">
          <mxGeometry x="1809.5" y="980" width="108" height="40" as="geometry" />
        </mxCell>
        <mxCell id="ihPKj_Jb4i0oSnzgKSyb-256" value="Text" style="text;strokeColor=none;align=center;fillColor=none;html=1;verticalAlign=middle;whiteSpace=wrap;rounded=0;fontColor=#FFFFFF;" vertex="1" parent="1">
          <mxGeometry x="1010" y="360" width="60" height="30" as="geometry" />
        </mxCell>
        <mxCell id="ihPKj_Jb4i0oSnzgKSyb-257" value="&lt;font color=&quot;#000000&quot;&gt;1&lt;/font&gt;" style="text;strokeColor=none;align=center;fillColor=none;html=1;verticalAlign=middle;whiteSpace=wrap;rounded=0;fontColor=#FFFFFF;" vertex="1" parent="1">
          <mxGeometry x="1008" y="360" width="60" height="30" as="geometry" />
        </mxCell>
        <mxCell id="ihPKj_Jb4i0oSnzgKSyb-258" value="&lt;font style=&quot;color: rgb(0, 0, 0);&quot;&gt;M&lt;/font&gt;" style="text;strokeColor=none;align=center;fillColor=none;html=1;verticalAlign=middle;whiteSpace=wrap;rounded=0;fontColor=#FFFFFF;" vertex="1" parent="1">
          <mxGeometry x="1510" y="170" width="60" height="30" as="geometry" />
        </mxCell>
        <mxCell id="ihPKj_Jb4i0oSnzgKSyb-260" value="&lt;font style=&quot;color: rgb(0, 0, 0);&quot;&gt;M&lt;/font&gt;" style="text;strokeColor=none;align=center;fillColor=none;html=1;verticalAlign=middle;whiteSpace=wrap;rounded=0;fontColor=#FFFFFF;" vertex="1" parent="1">
          <mxGeometry x="410" y="544.5" width="60" height="30" as="geometry" />
        </mxCell>
        <mxCell id="ihPKj_Jb4i0oSnzgKSyb-261" value="&lt;font style=&quot;color: rgb(0, 0, 0);&quot;&gt;M&lt;/font&gt;" style="text;strokeColor=none;align=center;fillColor=none;html=1;verticalAlign=middle;whiteSpace=wrap;rounded=0;fontColor=#FFFFFF;" vertex="1" parent="1">
          <mxGeometry x="330" y="830" width="60" height="30" as="geometry" />
        </mxCell>
        <mxCell id="ihPKj_Jb4i0oSnzgKSyb-262" value="&lt;font style=&quot;color: rgb(0, 0, 0);&quot;&gt;M&lt;/font&gt;" style="text;strokeColor=none;align=center;fillColor=none;html=1;verticalAlign=middle;whiteSpace=wrap;rounded=0;fontColor=#FFFFFF;" vertex="1" parent="1">
          <mxGeometry x="320" y="610" width="60" height="30" as="geometry" />
        </mxCell>
        <mxCell id="ihPKj_Jb4i0oSnzgKSyb-263" value="&lt;font style=&quot;color: rgb(0, 0, 0);&quot;&gt;M&lt;/font&gt;" style="text;strokeColor=none;align=center;fillColor=none;html=1;verticalAlign=middle;whiteSpace=wrap;rounded=0;fontColor=#FFFFFF;" vertex="1" parent="1">
          <mxGeometry x="583" y="900" width="60" height="30" as="geometry" />
        </mxCell>
        <mxCell id="ihPKj_Jb4i0oSnzgKSyb-264" value="&lt;font style=&quot;color: rgb(0, 0, 0);&quot;&gt;M&lt;/font&gt;" style="text;strokeColor=none;align=center;fillColor=none;html=1;verticalAlign=middle;whiteSpace=wrap;rounded=0;fontColor=#FFFFFF;" vertex="1" parent="1">
          <mxGeometry x="396" y="860" width="60" height="30" as="geometry" />
        </mxCell>
        <mxCell id="ihPKj_Jb4i0oSnzgKSyb-265" value="&lt;font style=&quot;color: rgb(0, 0, 0);&quot;&gt;M&lt;/font&gt;" style="text;strokeColor=none;align=center;fillColor=none;html=1;verticalAlign=middle;whiteSpace=wrap;rounded=0;fontColor=#FFFFFF;" vertex="1" parent="1">
          <mxGeometry x="1030" y="985" width="60" height="30" as="geometry" />
        </mxCell>
        <mxCell id="ihPKj_Jb4i0oSnzgKSyb-266" value="&lt;font color=&quot;#000000&quot;&gt;1&lt;/font&gt;" style="text;strokeColor=none;align=center;fillColor=none;html=1;verticalAlign=middle;whiteSpace=wrap;rounded=0;fontColor=#FFFFFF;" vertex="1" parent="1">
          <mxGeometry x="870" y="425" width="60" height="30" as="geometry" />
        </mxCell>
        <mxCell id="ihPKj_Jb4i0oSnzgKSyb-267" value="&lt;font style=&quot;color: rgb(0, 0, 0);&quot;&gt;M&lt;/font&gt;" style="text;strokeColor=none;align=center;fillColor=none;html=1;verticalAlign=middle;whiteSpace=wrap;rounded=0;fontColor=#FFFFFF;" vertex="1" parent="1">
          <mxGeometry x="1530" y="1003" width="60" height="30" as="geometry" />
        </mxCell>
        <mxCell id="ihPKj_Jb4i0oSnzgKSyb-268" value="&lt;font style=&quot;color: rgb(0, 0, 0);&quot;&gt;M&lt;/font&gt;" style="text;strokeColor=none;align=center;fillColor=none;html=1;verticalAlign=middle;whiteSpace=wrap;rounded=0;fontColor=#FFFFFF;" vertex="1" parent="1">
          <mxGeometry x="1530" y="815" width="60" height="30" as="geometry" />
        </mxCell>
        <mxCell id="ihPKj_Jb4i0oSnzgKSyb-269" value="&lt;font style=&quot;color: rgb(0, 0, 0);&quot;&gt;M&lt;/font&gt;" style="text;strokeColor=none;align=center;fillColor=none;html=1;verticalAlign=middle;whiteSpace=wrap;rounded=0;fontColor=#FFFFFF;" vertex="1" parent="1">
          <mxGeometry x="1550" y="615" width="60" height="30" as="geometry" />
        </mxCell>
        <mxCell id="ihPKj_Jb4i0oSnzgKSyb-270" value="&lt;font color=&quot;#000000&quot;&gt;1&lt;/font&gt;" style="text;strokeColor=none;align=center;fillColor=none;html=1;verticalAlign=middle;whiteSpace=wrap;rounded=0;fontColor=#FFFFFF;" vertex="1" parent="1">
          <mxGeometry x="830" y="425" width="60" height="30" as="geometry" />
        </mxCell>
        <mxCell id="ihPKj_Jb4i0oSnzgKSyb-271" value="&lt;font style=&quot;color: rgb(0, 0, 0);&quot;&gt;M&lt;/font&gt;" style="text;strokeColor=none;align=center;fillColor=none;html=1;verticalAlign=middle;whiteSpace=wrap;rounded=0;fontColor=#FFFFFF;" vertex="1" parent="1">
          <mxGeometry x="970" y="315" width="60" height="30" as="geometry" />
        </mxCell>
        <mxCell id="ihPKj_Jb4i0oSnzgKSyb-272" value="&lt;font style=&quot;color: rgb(0, 0, 0);&quot;&gt;M&lt;/font&gt;" style="text;strokeColor=none;align=center;fillColor=none;html=1;verticalAlign=middle;whiteSpace=wrap;rounded=0;fontColor=#FFFFFF;" vertex="1" parent="1">
          <mxGeometry x="1210" y="40" width="60" height="30" as="geometry" />
        </mxCell>
        <mxCell id="ihPKj_Jb4i0oSnzgKSyb-273" value="&lt;font color=&quot;#000000&quot;&gt;1&lt;/font&gt;" style="text;strokeColor=none;align=center;fillColor=none;html=1;verticalAlign=middle;whiteSpace=wrap;rounded=0;fontColor=#FFFFFF;" vertex="1" parent="1">
          <mxGeometry x="738" y="675" width="60" height="30" as="geometry" />
        </mxCell>
        <mxCell id="ihPKj_Jb4i0oSnzgKSyb-276" value="&lt;font color=&quot;#000000&quot;&gt;1&lt;/font&gt;" style="text;strokeColor=none;align=center;fillColor=none;html=1;verticalAlign=middle;whiteSpace=wrap;rounded=0;fontColor=#FFFFFF;" vertex="1" parent="1">
          <mxGeometry x="460" y="55" width="60" height="30" as="geometry" />
        </mxCell>
        <mxCell id="ihPKj_Jb4i0oSnzgKSyb-277" value="&lt;font color=&quot;#000000&quot;&gt;1&lt;/font&gt;" style="text;strokeColor=none;align=center;fillColor=none;html=1;verticalAlign=middle;whiteSpace=wrap;rounded=0;fontColor=#FFFFFF;" vertex="1" parent="1">
          <mxGeometry x="830" y="315" width="60" height="30" as="geometry" />
        </mxCell>
        <mxCell id="ihPKj_Jb4i0oSnzgKSyb-278" value="&lt;font color=&quot;#000000&quot;&gt;M&lt;/font&gt;" style="text;strokeColor=none;align=center;fillColor=none;html=1;verticalAlign=middle;whiteSpace=wrap;rounded=0;fontColor=#FFFFFF;" vertex="1" parent="1">
          <mxGeometry x="920" y="432" width="60" height="30" as="geometry" />
        </mxCell>
        <mxCell id="ihPKj_Jb4i0oSnzgKSyb-279" value="&lt;font color=&quot;#000000&quot;&gt;1&lt;/font&gt;" style="text;strokeColor=none;align=center;fillColor=none;html=1;verticalAlign=middle;whiteSpace=wrap;rounded=0;fontColor=#FFFFFF;" vertex="1" parent="1">
          <mxGeometry x="597" y="750" width="60" height="30" as="geometry" />
        </mxCell>
        <mxCell id="ihPKj_Jb4i0oSnzgKSyb-282" style="edgeStyle=orthogonalEdgeStyle;rounded=0;orthogonalLoop=1;jettySize=auto;html=1;exitX=1;exitY=0.5;exitDx=0;exitDy=0;entryX=0;entryY=0.5;entryDx=0;entryDy=0;strokeColor=#23445D;" edge="1" parent="1" source="ihPKj_Jb4i0oSnzgKSyb-280" target="ihPKj_Jb4i0oSnzgKSyb-24">
          <mxGeometry relative="1" as="geometry" />
        </mxCell>
        <mxCell id="ihPKj_Jb4i0oSnzgKSyb-280" value="Interacts" style="rhombus;whiteSpace=wrap;html=1;labelBackgroundColor=none;fillColor=#182E3E;strokeColor=#FFFFFF;fontColor=#FFFFFF;" vertex="1" parent="1">
          <mxGeometry x="569" y="275" width="80" height="80" as="geometry" />
        </mxCell>
        <mxCell id="ihPKj_Jb4i0oSnzgKSyb-283" value="&lt;font color=&quot;#000000&quot;&gt;1&lt;/font&gt;" style="text;strokeColor=none;align=center;fillColor=none;html=1;verticalAlign=middle;whiteSpace=wrap;rounded=0;fontColor=#FFFFFF;" vertex="1" parent="1">
          <mxGeometry x="770" y="360" width="60" height="30" as="geometry" />
        </mxCell>
        <mxCell id="ihPKj_Jb4i0oSnzgKSyb-284" value="&lt;font color=&quot;#000000&quot;&gt;1&lt;/font&gt;" style="text;strokeColor=none;align=center;fillColor=none;html=1;verticalAlign=middle;whiteSpace=wrap;rounded=0;fontColor=#FFFFFF;" vertex="1" parent="1">
          <mxGeometry x="420" y="250" width="60" height="30" as="geometry" />
        </mxCell>
        <mxCell id="ihPKj_Jb4i0oSnzgKSyb-285" value="&lt;font style=&quot;color: rgb(0, 0, 0);&quot;&gt;M&lt;/font&gt;" style="text;strokeColor=none;align=center;fillColor=none;html=1;verticalAlign=middle;whiteSpace=wrap;rounded=0;fontColor=#FFFFFF;" vertex="1" parent="1">
          <mxGeometry x="270" y="275" width="60" height="30" as="geometry" />
        </mxCell>
        <mxCell id="ihPKj_Jb4i0oSnzgKSyb-288" value="&lt;font color=&quot;#000000&quot;&gt;1&lt;/font&gt;" style="text;strokeColor=none;align=center;fillColor=none;html=1;verticalAlign=middle;whiteSpace=wrap;rounded=0;fontColor=#FFFFFF;" vertex="1" parent="1">
          <mxGeometry x="380" y="280" width="60" height="30" as="geometry" />
        </mxCell>
        <mxCell id="ihPKj_Jb4i0oSnzgKSyb-290" value="&lt;font style=&quot;color: rgb(0, 0, 0);&quot;&gt;M&lt;/font&gt;" style="text;strokeColor=none;align=center;fillColor=none;html=1;verticalAlign=middle;whiteSpace=wrap;rounded=0;fontColor=#FFFFFF;" vertex="1" parent="1">
          <mxGeometry x="336" y="285" width="60" height="30" as="geometry" />
        </mxCell>
        <mxCell id="ihPKj_Jb4i0oSnzgKSyb-291" value="&lt;font style=&quot;color: rgb(0, 0, 0);&quot;&gt;M&lt;/font&gt;" style="text;strokeColor=none;align=center;fillColor=none;html=1;verticalAlign=middle;whiteSpace=wrap;rounded=0;fontColor=#FFFFFF;" vertex="1" parent="1">
          <mxGeometry x="970" y="160" width="60" height="30" as="geometry" />
        </mxCell>
      </root>
    </mxGraphModel>
  </diagram>
</mxfile>
